<svg version="1.1" id="Layer_1" xmlns="http://www.w3.org/2000/svg" xmlns:xlink="http://www.w3.org/1999/xlink" x="0px" y="0px"
	 width="100%" viewBox="0 0 640 640" enable-background="new 0 0 640 640" xml:space="preserve">
<path fill="#000000" opacity="1.000000" stroke="none" 
	d="
M291.980408,105.884872 
	C294.834991,107.313004 296.804901,106.707947 298.335449,104.387222 
	C298.699951,103.834511 299.287537,103.414047 299.589111,102.836899 
	C304.439117,93.555519 312.057098,90.724121 322.262177,91.851746 
	C330.995697,92.816772 339.876007,92.497643 348.693146,92.630127 
	C350.866913,92.662788 352.521088,93.321487 353.912537,94.983833 
	C356.263763,97.792831 359.006256,100.320816 361.048676,103.330414 
	C363.793823,107.375549 367.196228,108.033859 371.268158,106.140816 
	C380.857361,101.682793 389.176758,103.338806 397.424042,109.912971 
	C403.636627,114.865242 410.778839,118.672928 417.619385,122.804489 
	C420.134583,124.323624 421.244171,126.140739 421.597931,129.116272 
	C422.111786,133.438293 422.392914,137.749603 422.271881,142.068222 
	C422.179047,145.379974 423.040009,147.349976 426.667145,147.993408 
	C430.580597,148.687622 434.335419,150.299332 438.252747,150.942368 
	C442.602753,151.656464 444.699341,153.795944 445.791412,158.109665 
	C448.768646,169.869904 452.073090,181.554245 455.569275,193.171936 
	C456.614746,196.646011 455.932037,199.263077 453.959595,201.994003 
	C450.937927,206.177719 448.163300,210.542816 445.069977,214.670670 
	C443.233002,217.121979 443.093414,219.392166 444.406769,222.068832 
	C446.166077,225.654312 447.326355,229.592865 449.456390,232.924194 
	C453.134491,238.676636 452.348724,243.911072 449.628845,249.785706 
	C445.437317,258.838989 441.802032,268.160431 438.215302,277.477692 
	C436.858673,281.001831 434.708099,282.248169 431.093506,282.363922 
	C426.283386,282.517975 421.495941,283.278107 416.686371,283.583038 
	C412.991852,283.817230 411.064056,285.420227 410.631836,289.251221 
	C410.111328,293.864410 408.794556,298.400543 408.449249,303.016937 
	C408.136139,307.202759 406.136780,309.085968 402.342438,310.342499 
	C392.866699,313.480469 383.353760,316.608032 374.165131,320.474884 
	C368.153748,323.004608 362.617462,323.433777 357.172638,320.000244 
	C351.198395,316.232788 346.702606,317.749878 342.789032,323.044830 
	C337.831085,329.752747 331.393494,332.132843 322.913788,331.500397 
	C312.476501,330.721893 301.933289,331.143829 291.444031,331.391968 
	C287.360870,331.488586 284.054352,330.503479 282.217285,326.896118 
	C276.787628,316.234375 269.007141,313.710724 258.515747,319.489349 
	C256.190033,320.770355 254.035217,320.008270 251.917419,318.778015 
	C241.261398,312.587769 230.614166,306.381470 219.903778,300.286346 
	C217.404160,298.863831 216.618073,296.967346 216.599991,294.175323 
	C216.561249,288.193726 217.008987,282.209442 216.176788,276.216705 
	C215.790390,273.434265 214.532669,272.135742 212.056305,271.356415 
	C206.819260,269.708221 201.682602,267.712219 196.392136,266.272980 
	C192.983627,265.345734 191.502487,263.441711 191.058868,260.083649 
	C189.688828,249.712799 188.330811,239.334793 186.624847,229.016327 
	C185.826065,224.184937 187.551727,220.339691 190.569977,217.188217 
	C198.328171,209.087662 198.358673,201.154846 190.924271,192.964920 
	C185.053146,186.497131 185.625610,180.140442 189.758240,172.634979 
	C195.366379,162.449799 199.817947,151.617661 204.554321,140.969055 
	C205.886276,137.974472 207.625580,136.661057 210.950485,136.620697 
	C217.100616,136.546082 223.242859,135.905273 229.393906,135.787674 
	C232.259232,135.732910 233.917694,134.497375 234.290909,131.899902 
	C236.350113,117.567993 245.462997,110.157585 258.693939,106.681313 
	C259.172577,106.555557 259.665863,106.377930 260.073853,106.106522 
	C270.519073,99.157822 281.033844,99.193710 291.980408,105.884872 
M237.070877,159.776413 
	C233.578766,159.950378 230.078293,160.355881 226.597015,160.230072 
	C223.420349,160.115250 221.744446,161.439835 220.564865,164.254425 
	C218.636047,168.856735 216.499756,173.377655 214.299957,177.858765 
	C213.003769,180.499191 213.039902,182.776047 214.673386,185.337921 
	C218.164352,190.813019 221.308029,196.508743 224.762009,202.008545 
	C226.486130,204.753845 226.505280,207.092560 224.621750,209.801682 
	C220.725616,215.405609 217.072327,221.178085 213.301208,226.869354 
	C212.187729,228.549789 211.216949,230.173920 211.463562,232.387390 
	C213.001572,246.192368 212.971207,246.195984 226.174301,250.618240 
	C226.647781,250.776825 227.128525,250.913742 227.602280,251.071548 
	C240.330368,255.311462 241.362793,255.416290 240.037979,268.493896 
	C238.797729,280.736694 243.025116,287.875397 254.143295,292.067688 
	C257.091888,293.179474 259.576202,294.049469 262.684296,292.915161 
	C266.899292,291.376923 271.329773,290.420654 275.520691,288.827637 
	C279.695038,287.240997 282.656708,287.842651 285.285828,291.743805 
	C288.068604,295.872986 291.562561,299.515625 294.565430,303.506561 
	C296.325378,305.845612 298.356049,306.904022 301.335968,306.827057 
	C307.828827,306.659393 314.331085,306.692413 320.825562,306.829193 
	C323.530792,306.886169 325.599030,306.034515 327.498627,304.141693 
	C331.859344,299.796570 336.437897,295.668060 340.747864,291.274902 
	C342.779388,289.204163 344.630707,288.707916 347.354980,289.925446 
	C352.517273,292.232605 357.836212,294.187439 363.069916,296.337769 
	C364.795654,297.046814 366.379913,297.523987 368.318268,296.764343 
	C373.120911,294.882233 378.023987,293.257874 382.867310,291.477264 
	C384.800873,290.766388 386.321320,289.766266 386.658661,287.352570 
	C387.554230,280.944855 388.792450,274.584320 389.651489,268.172455 
	C390.195648,264.110870 391.263367,261.173126 396.296692,261.476410 
	C399.077362,261.643951 401.903381,260.862762 404.719879,260.664062 
	C419.267151,259.637726 419.170959,259.614044 424.876953,246.112579 
	C426.233887,242.901840 426.222992,240.213486 424.698547,237.134933 
	C422.040314,231.766571 419.974426,226.090240 417.109436,220.843765 
	C415.035614,217.046204 415.456177,214.114410 417.973175,210.870651 
	C420.726288,207.322586 422.872681,203.274094 425.818542,199.912598 
	C429.713257,195.468384 430.292816,191.181320 428.415619,185.476120 
	C423.192627,169.602310 427.655823,173.500870 411.143890,169.096863 
	C398.942047,165.842422 398.213196,165.924683 398.907959,153.357819 
	C399.489685,142.834305 396.021606,136.068237 386.409912,131.707321 
	C382.561005,129.961044 379.334656,128.698135 375.128235,130.123901 
	C370.417877,131.720474 365.474213,132.614914 360.682281,133.989929 
	C357.776276,134.823730 355.700928,134.286224 353.727356,131.805389 
	C350.309113,127.508568 346.477539,123.543289 342.936493,119.340233 
	C341.199280,117.278275 339.230408,116.361153 336.477173,116.294174 
	C320.477966,115.904976 320.477234,115.847015 310.473877,128.388535 
	C309.331482,129.820786 308.084137,131.196793 307.138031,132.752487 
	C305.144043,136.031296 302.763458,136.616623 299.198242,135.018265 
	C292.974762,132.228165 286.553802,129.879364 280.222198,127.329231 
	C278.184998,126.508736 276.161224,125.830986 273.937561,126.642021 
	C265.582458,129.689392 257.085663,132.555801 255.930115,143.375839 
	C255.826584,144.345108 255.211868,145.250198 255.025742,146.221725 
	C253.221664,155.638504 248.821426,161.708832 237.070877,159.776413 
z"/>
<path fill="#000000" opacity="1.000000" stroke="none" 
	d="
M392.443237,416.335571 
	C389.553131,424.202087 386.700684,431.668854 384.071960,439.213623 
	C383.057190,442.126160 381.523499,443.383850 378.287140,443.431732 
	C367.570007,443.590332 367.509613,443.741760 363.740570,433.916809 
	C359.868805,423.824005 356.135681,413.678009 352.320435,403.498047 
	C350.427795,403.851807 350.577362,405.444855 350.148285,406.553955 
	C346.063416,417.112854 341.886505,427.639618 338.042297,438.286224 
	C336.715729,441.960144 334.883270,443.587982 330.807190,443.432068 
	C318.733185,442.970276 321.543549,445.132050 317.330414,433.914581 
	C311.476593,418.328949 305.797577,402.677399 300.093201,387.036041 
	C299.370117,385.053345 298.100891,383.135620 298.861694,380.437225 
	C302.732971,379.152924 306.864594,379.739563 310.912598,380.013123 
	C313.345337,380.177551 313.704010,382.616608 314.364563,384.447693 
	C318.317932,395.407074 322.219025,406.385315 326.142365,417.355560 
	C326.752350,419.061157 327.386383,420.758209 328.170654,422.899841 
	C330.380127,421.090881 330.846405,418.804596 331.614319,416.775909 
	C335.739624,405.877319 340.018646,395.027313 343.746552,383.992279 
	C345.432648,379.001282 348.997589,379.902374 352.568176,379.746582 
	C356.112579,379.591858 358.866547,379.907562 360.282074,384.141479 
	C364.028015,395.345703 368.222473,406.400635 372.291382,417.495575 
	C372.958221,419.313904 373.223450,421.369324 375.393707,423.254791 
	C379.240173,412.895691 382.976532,402.835968 386.710205,392.775269 
	C387.347260,391.058624 387.949707,389.328857 388.607727,387.620392 
	C391.862549,379.169891 395.352081,377.680237 405.443878,381.047455 
	C401.150482,392.693176 396.860352,404.330078 392.443237,416.335571 
z"/>
<path fill="#000000" opacity="1.000000" stroke="none" 
	d="
M209.827576,478.043457 
	C213.122528,478.056274 216.108810,477.779602 217.047714,481.648895 
	C222.324753,479.095062 227.240677,477.256622 232.768417,477.618866 
	C235.476700,477.796387 238.038696,478.285858 240.515656,479.292694 
	C243.665009,480.572876 253.214813,480.771942 256.222687,479.554443 
	C272.749481,472.864929 286.876221,482.092468 287.158447,499.845276 
	C287.288116,508.002350 287.082031,516.165222 287.247681,524.321045 
	C287.318695,527.817261 286.380981,529.495850 282.498657,529.397400 
	C269.851807,529.076721 271.858124,530.663330 271.670044,518.936401 
	C271.579254,513.276428 271.781769,507.609558 271.603424,501.953613 
	C271.386017,495.059448 267.994476,491.358154 262.241882,491.334351 
	C256.181427,491.309265 252.420853,495.165771 252.258316,502.002106 
	C252.080261,509.491119 252.070694,516.989075 252.215469,524.478699 
	C252.285965,528.126404 250.944977,529.468750 247.241745,529.388428 
	C234.459793,529.111084 236.158661,530.890869 236.014771,518.250977 
	C235.948425,512.423767 236.073669,506.592133 235.895126,500.769196 
	C235.709213,494.706055 232.896820,491.557037 227.852325,491.332458 
	C222.071655,491.075104 217.669724,494.481903 217.341476,500.308350 
	C216.911240,507.944916 216.853729,515.625916 217.127228,523.270203 
	C217.301529,528.141846 215.544312,529.603638 210.781830,529.439209 
	C201.941360,529.133972 201.575912,529.387512 201.369598,520.726440 
	C201.060684,507.759552 201.339767,494.779175 201.302261,481.804749 
	C201.294907,479.261505 202.454849,478.136169 204.891235,478.106415 
	C206.389648,478.088104 207.888062,478.069550 209.827576,478.043457 
z"/>
<path fill="#000000" opacity="1.000000" stroke="none" 
	d="
M164.998932,411.989197 
	C159.672119,411.976227 154.835129,412.147614 150.020432,411.894470 
	C145.597977,411.662048 143.656845,413.111633 143.883789,417.850494 
	C144.209885,424.659332 143.898087,431.496582 143.975601,438.320374 
	C144.016083,441.884003 142.572586,443.341064 138.885513,443.276367 
	C125.608101,443.043488 127.020203,444.637268 126.994621,431.623444 
	C126.952415,410.150299 126.978378,388.677002 127.012375,367.203827 
	C127.023239,360.341583 127.295685,360.067383 133.940720,360.053345 
	C150.087189,360.019196 166.233917,359.993744 182.380234,360.050476 
	C188.332382,360.071381 188.130753,360.253082 188.415421,367.981506 
	C188.590942,372.746277 187.025284,374.435699 182.190308,374.309296 
	C171.377884,374.026611 160.549454,374.382721 149.734787,374.146790 
	C145.464218,374.053650 143.591309,375.313538 143.890305,379.787506 
	C144.178284,384.096405 144.083221,388.443756 143.923813,392.765656 
	C143.791473,396.353882 145.112762,397.822571 148.857147,397.751251 
	C158.508224,397.567413 168.167999,397.828949 177.818542,397.631622 
	C181.829163,397.549622 183.797928,398.798065 183.348511,403.016083 
	C183.190674,404.497437 183.215500,406.018799 183.343384,407.505859 
	C183.621948,410.744995 182.114853,412.059174 178.981033,412.011658 
	C174.487762,411.943512 169.992752,411.990601 164.998932,411.989197 
z"/>
<path fill="#000000" opacity="1.000000" stroke="none" 
	d="
M466.941895,435.808289 
	C454.548309,446.164612 434.985443,447.359039 421.853699,438.820892 
	C410.206970,431.248383 405.140900,416.919739 408.931580,402.272552 
	C412.217529,389.575623 423.222076,380.658173 436.876556,379.627563 
	C457.560364,378.066406 470.683472,388.987549 472.800629,409.523804 
	C473.484161,416.153992 472.609253,417.181885 466.067352,417.197723 
	C454.403290,417.225952 442.739166,417.214264 431.075043,417.218994 
	C429.110199,417.219788 427.145325,417.219116 425.197876,417.219116 
	C425.184998,423.950775 431.089600,429.450470 439.281372,430.517242 
	C445.369019,431.310059 451.242584,430.478546 456.470276,426.843689 
	C458.158875,425.669647 460.198486,423.349640 461.997681,425.944733 
	C464.047241,428.900879 469.196594,430.364990 466.941895,435.808289 
M451.532684,395.904816 
	C450.245422,395.154999 449.020538,394.258881 447.660736,393.679260 
	C439.049072,390.008453 428.647919,393.777313 425.214813,401.733063 
	C424.431335,403.548706 423.720490,405.741272 426.578278,405.801819 
	C436.617523,406.014557 446.664001,405.884399 456.944733,405.884399 
	C456.892639,401.356262 454.565247,398.819641 451.532684,395.904816 
z"/>
<path fill="#000000" opacity="1.000000" stroke="none" 
	d="
M352.922180,478.376831 
	C364.735474,477.548096 364.762909,477.538116 368.698792,488.356628 
	C371.181610,495.181152 373.567474,502.040955 376.199646,509.456299 
	C378.822144,506.985962 379.095215,504.240417 380.003418,501.870026 
	C382.323792,495.813812 384.806915,489.788055 386.589264,483.567963 
	C387.941589,478.848694 390.788422,477.960205 395.102173,477.992950 
	C399.331055,478.025116 402.234222,478.674927 403.676239,483.462036 
	C406.253479,492.017670 409.554169,500.355408 412.679504,509.141541 
	C414.979401,507.911102 415.173370,505.988129 415.755615,504.403107 
	C418.049072,498.159882 420.260834,491.886566 422.491333,485.620300 
	C425.287598,477.764801 425.534027,477.598724 433.954071,478.113159 
	C435.276001,478.193909 436.619812,478.191559 437.779083,479.179779 
	C438.738892,480.861267 437.631714,482.382507 437.104553,483.854156 
	C432.225159,497.475830 427.148163,511.027924 422.395599,524.693115 
	C421.148865,528.277832 419.319305,529.540100 415.535767,529.406982 
	C403.834137,528.995239 406.369202,530.931152 402.381134,520.190796 
	C400.130585,514.129700 397.941376,508.045868 395.772797,502.104401 
	C393.431732,502.009216 393.376587,503.627045 392.943054,504.750305 
	C390.368134,511.421844 387.646820,518.048950 385.414490,524.835632 
	C384.273529,528.304382 382.481445,529.522095 378.908875,529.390808 
	C367.501953,528.971497 369.520691,531.195740 365.465698,519.860352 
	C361.207977,507.958099 356.797485,496.110291 352.586029,484.191956 
	C351.959778,482.419586 349.815186,480.391876 352.922180,478.376831 
z"/>
<path fill="#000000" opacity="1.000000" stroke="none" 
	d="
M229.189423,417.328674 
	C227.406158,401.568695 233.459717,389.352020 245.855621,383.033386 
	C258.532501,376.571594 275.957977,378.508087 286.207672,387.517761 
	C295.963562,396.093353 299.238892,410.903595 294.327301,424.233398 
	C290.029175,435.898407 278.185699,444.106232 265.327240,444.331207 
	C245.404938,444.679749 232.732040,435.328674 229.189423,417.328674 
M253.454544,428.197205 
	C262.341736,432.430084 270.837311,430.962280 276.430328,424.227661 
	C281.839111,417.714752 281.967682,406.436340 276.710510,399.646698 
	C271.890228,393.421295 262.684906,391.424194 255.042801,394.542084 
	C242.499359,399.659607 241.543884,421.201843 253.454544,428.197205 
z"/>
<path fill="#000000" opacity="1.000000" stroke="none" 
	d="
M559.703979,493.474976 
	C560.402405,496.750916 561.822266,495.748444 563.197815,494.469391 
	C567.097717,490.843048 571.392090,487.533600 574.752625,483.457550 
	C581.054443,475.814148 588.940125,478.313751 596.657654,478.559723 
	C597.059875,481.347412 595.282654,482.338745 594.074402,483.579468 
	C589.776672,487.992706 585.540283,492.480103 581.018311,496.655304 
	C578.275024,499.188263 578.627258,501.239136 580.724915,503.850800 
	C586.144470,510.598236 591.445374,517.441406 596.753906,524.277161 
	C597.731323,525.535767 599.250488,526.555115 598.977173,529.169373 
	C593.630920,529.169373 588.237183,529.233093 582.846619,529.131531 
	C581.178162,529.100037 580.407959,527.508667 579.476562,526.376892 
	C576.197510,522.392334 572.824158,518.472046 569.773743,514.316528 
	C567.167969,510.766724 565.177734,511.251495 562.277527,514.125977 
	C559.072205,517.302917 559.190491,521.022034 559.529358,524.795715 
	C559.849426,528.359192 558.612549,529.478699 555.099121,529.393677 
	C542.422363,529.086670 544.157959,530.860657 544.089478,518.604065 
	C543.990906,500.955139 544.212158,483.303162 543.962341,465.657227 
	C543.891846,460.674255 545.445007,458.471313 550.493835,459.027191 
	C551.974548,459.190216 553.491394,459.118774 554.985962,459.042267 
	C558.681152,458.852966 559.709778,460.419220 559.598206,464.167908 
	C559.311096,473.811646 559.584229,483.472076 559.703979,493.474976 
z"/>
<path fill="#000000" opacity="1.000000" stroke="none" 
	d="
M49.086334,501.000000 
	C49.089020,490.007721 49.229717,479.512756 49.024239,469.024536 
	C48.942413,464.847961 50.145660,462.958435 54.634605,463.017853 
	C67.955833,463.194214 81.281387,463.110748 94.604599,463.026031 
	C98.269005,463.002716 100.373749,463.970581 99.673279,468.220001 
	C99.104500,471.670502 101.927879,476.695129 94.699318,476.387299 
	C86.553413,476.040405 78.379181,476.418518 70.221306,476.265808 
	C66.544670,476.197021 65.225822,477.611572 65.298759,481.279541 
	C65.562370,494.536774 63.864929,492.491364 76.228348,492.665375 
	C81.390305,492.738037 86.557053,492.790375 91.715836,492.645630 
	C94.744682,492.560669 95.742111,493.872681 95.934357,496.763153 
	C96.508591,505.396820 96.080856,505.978607 87.663246,506.001373 
	C81.667656,506.017609 75.670380,506.105682 69.677086,505.991699 
	C66.449791,505.930298 65.211899,507.261353 65.307793,510.465271 
	C65.457184,515.456848 65.266769,520.457703 65.347351,525.452576 
	C65.390671,528.137939 64.414490,529.394592 61.572426,529.355957 
	C46.942913,529.157104 49.374397,531.084106 49.092888,517.987610 
	C48.974812,512.494202 49.081188,506.996033 49.086334,501.000000 
z"/>
<path fill="#000000" opacity="1.000000" stroke="none" 
	d="
M186.198700,488.137146 
	C188.595245,493.111847 188.761703,498.149445 188.943512,503.099091 
	C189.199707,510.075073 188.848404,517.073059 189.089981,524.050110 
	C189.235580,528.255432 187.550552,529.847961 183.510986,529.352234 
	C179.982437,528.919189 176.218323,530.371460 172.946808,527.737610 
	C171.768036,526.788574 170.406326,527.895203 169.208023,528.390320 
	C163.792633,530.627625 158.291138,530.907471 152.618942,529.439514 
	C144.756653,527.404602 139.679565,521.501465 139.814606,514.338379 
	C139.956512,506.812469 145.239487,501.244171 153.640350,499.705078 
	C158.742447,498.770355 163.893005,498.828217 169.045563,498.802795 
	C170.346252,498.796387 171.869904,498.918457 172.405319,497.307373 
	C172.882248,495.872314 172.041153,494.699249 171.140350,493.715424 
	C167.226913,489.441254 162.166443,489.943176 157.199524,490.694336 
	C155.106842,491.010895 152.968811,491.812531 151.136353,492.881927 
	C148.354080,494.505615 146.861191,494.090424 145.306717,491.138580 
	C141.277390,483.487152 141.569824,482.499207 149.916809,479.805267 
	C157.338074,477.410065 164.844971,476.892761 172.518188,478.482635 
	C178.372314,479.695526 182.964783,482.602814 186.198700,488.137146 
M156.602448,516.918213 
	C161.776611,520.426208 167.093796,520.118042 170.923203,516.195435 
	C172.604156,514.473633 173.136444,512.483643 172.497757,510.276825 
	C171.809082,507.897369 169.652908,508.421417 167.910690,508.372803 
	C165.104752,508.294495 162.319916,508.242676 159.564606,509.177124 
	C155.845963,510.438293 154.434998,512.588928 156.602448,516.918213 
z"/>
<path fill="#000000" opacity="1.000000" stroke="none" 
	d="
M335.386780,480.300842 
	C344.843445,485.279419 349.121887,492.925140 349.379028,503.127960 
	C349.473633,506.882507 348.386810,508.526215 344.308472,508.410217 
	C335.498199,508.159637 326.675476,508.307007 317.858368,508.367493 
	C316.127930,508.379364 313.765106,507.756531 313.140808,510.039154 
	C312.540527,512.234070 314.280609,513.775330 315.993500,514.863770 
	C322.054291,518.715027 328.230591,518.451782 334.424683,515.136108 
	C338.137512,513.148682 341.001770,514.474426 344.411407,519.847107 
	C346.772156,523.567078 343.191467,524.528870 341.270752,525.805237 
	C327.116943,535.211121 304.477661,529.822021 298.009766,515.281250 
	C293.634216,505.444366 294.410583,495.651062 301.364990,487.125397 
	C308.494507,478.385040 318.235687,476.525360 328.883240,478.175751 
	C330.986481,478.501770 332.992035,479.457642 335.386780,480.300842 
M313.061829,494.652588 
	C311.614288,497.406097 312.567902,498.727234 315.556763,498.757782 
	C320.357269,498.806854 325.158325,498.854248 329.958679,498.823242 
	C331.236450,498.815002 332.810364,498.999939 333.411346,497.469116 
	C333.970825,496.043945 332.945740,494.968170 332.116241,493.928497 
	C327.389038,488.003723 320.018066,488.043732 313.061829,494.652588 
z"/>
<path fill="#000000" opacity="1.000000" stroke="none" 
	d="
M481.782043,527.042725 
	C467.073029,533.272095 452.454315,530.222168 444.557434,519.381165 
	C438.418854,510.954041 437.937866,501.776367 442.057007,492.490265 
	C446.234253,483.073181 454.285919,478.787384 464.149292,477.787201 
	C467.902222,477.406677 471.718292,477.461945 475.517487,478.492004 
	C486.271393,481.407532 493.874847,489.000061 495.243713,498.594696 
	C497.040314,511.187347 492.636932,520.682373 481.782043,527.042725 
M473.392212,491.972351 
	C467.312134,489.705505 461.744812,490.722687 458.377716,494.715668 
	C454.649170,499.137299 454.230652,506.562347 457.428101,511.562195 
	C460.322021,516.087341 465.261810,517.937378 470.948334,516.686646 
	C475.777740,515.624390 478.452728,512.342163 479.357117,507.805878 
	C480.564911,501.747925 479.724762,496.143890 473.392212,491.972351 
z"/>
<path fill="#000000" opacity="1.000000" stroke="none" 
	d="
M215.965088,420.999878 
	C215.964569,427.326019 215.915039,433.152802 215.982712,438.978180 
	C216.018814,442.086914 214.798645,443.446320 211.525604,443.395996 
	C197.735291,443.183929 199.871658,444.773956 199.809982,432.302551 
	C199.693909,408.831512 199.890732,385.358551 199.694321,361.888580 
	C199.654419,357.120575 201.104111,355.416626 205.940292,355.603577 
	C216.398010,356.007843 215.951111,354.225891 215.959793,365.566406 
	C215.973816,383.877594 215.964386,402.188751 215.965088,420.999878 
z"/>
<path fill="#000000" opacity="1.000000" stroke="none" 
	d="
M510.287903,380.895630 
	C521.636230,377.744629 523.364929,379.281250 522.333618,390.749573 
	C522.107727,393.261383 521.149109,394.104218 518.677002,394.315460 
	C505.767212,395.418610 501.183533,400.363953 500.986481,413.402710 
	C500.860809,421.718933 500.912506,430.039520 501.013184,438.356598 
	C501.055359,441.840485 499.885437,443.474487 496.089233,443.409393 
	C482.870392,443.182617 484.932892,444.601044 484.837128,432.335693 
	C484.720184,417.363647 484.804230,402.389984 484.816742,387.417023 
	C484.823059,379.831421 484.838348,379.831482 492.640625,379.798706 
	C492.973358,379.797333 493.306061,379.791199 493.638794,379.791565 
	C499.551758,379.798279 499.551758,379.798431 500.735748,385.803986 
	C503.836151,384.187714 506.872467,382.604858 510.287903,380.895630 
z"/>
<path fill="#000000" opacity="1.000000" stroke="none" 
	d="
M114.059952,529.351440 
	C107.120583,529.219543 107.072563,529.219727 107.051125,522.545654 
	C107.012672,510.575165 107.040787,498.604431 107.036255,486.633789 
	C107.032974,477.971649 107.029556,477.963562 115.943176,478.025513 
	C119.080200,478.047333 122.601883,477.402649 122.803993,482.491882 
	C126.905922,480.327545 130.389191,478.388062 134.398224,477.817902 
	C137.567474,477.367188 139.693283,478.073059 139.345856,481.890930 
	C139.255875,482.879730 139.248322,483.895874 139.364899,484.880280 
	C139.913177,489.509949 138.956894,492.173615 133.247086,492.354523 
	C126.877914,492.556335 123.481834,496.737457 123.218048,503.178223 
	C122.980072,508.988586 123.031128,514.812927 123.043015,520.630920 
	C123.063026,530.417725 123.447586,529.266479 114.059952,529.351440 
z"/>
<path fill="#000000" opacity="1.000000" stroke="none" 
	d="
M527.321777,478.874695 
	C528.999023,478.446564 530.276978,478.063934 531.581787,477.834686 
	C534.916077,477.248840 536.691895,478.449280 536.351685,482.077332 
	C536.243469,483.230591 536.207642,484.423706 536.375183,485.563873 
	C537.040222,490.090607 535.527649,492.081482 530.581848,492.240021 
	C524.509888,492.434631 521.377380,495.811646 520.236755,501.779633 
	C518.978149,508.365021 519.762939,515.032654 519.451355,521.656494 
	C519.343079,523.959167 519.434143,526.271179 519.434143,528.713867 
	C515.069214,529.894897 510.924866,529.252808 506.829041,529.225952 
	C504.300079,529.209351 504.082581,527.166321 504.076996,525.291260 
	C504.034515,510.991791 504.045319,496.692200 504.021393,482.392639 
	C504.016602,479.528442 505.355225,477.831055 508.247772,478.186279 
	C512.432556,478.700287 517.869141,475.545502 520.079773,482.204865 
	C522.480652,481.078949 524.707703,480.034485 527.321777,478.874695 
z"/>
<path fill="#000000" opacity="1.000000" stroke="none" 
	d="
M295.791565,169.729675 
	C298.668457,165.988358 302.096924,164.882477 306.476135,164.940552 
	C322.627747,165.154785 338.784393,165.090012 354.938049,164.977509 
	C358.520508,164.952576 361.292694,165.946136 363.763947,168.627197 
	C368.501343,173.766861 373.428650,178.737671 378.412170,183.641296 
	C380.457642,185.653931 381.430481,187.780182 381.302185,190.700821 
	C380.864258,200.670334 380.588348,210.647507 380.324066,220.623703 
	C380.272003,222.589691 379.677216,224.190689 378.216675,225.483871 
	C377.843018,225.814713 377.484497,226.162643 377.113922,226.497101 
	C371.186951,231.846146 366.751373,239.657593 359.553467,242.527328 
	C352.370911,245.390945 343.734192,242.794098 335.792664,243.465729 
	C325.643768,244.324051 315.486816,243.524551 305.357117,244.199829 
	C302.317810,244.402451 299.949707,243.560440 297.782806,241.317062 
	C292.693878,236.048599 287.440826,230.935730 282.167297,225.849991 
	C280.345612,224.093201 279.635345,222.123169 279.653961,219.625793 
	C279.728485,209.633911 279.747894,199.640442 279.639984,189.649155 
	C279.610626,186.927567 280.518829,184.885361 282.436523,183.027985 
	C286.862183,178.741592 291.178955,174.342789 295.791565,169.729675 
M343.276703,189.340973 
	C333.626129,189.330597 323.975311,189.273071 314.325104,189.327957 
	C308.764496,189.359604 304.041534,194.158157 303.940216,199.761124 
	C303.886108,202.754669 303.939575,205.750763 303.977692,208.745285 
	C304.057404,215.007614 308.638214,219.659714 314.868866,219.678619 
	C325.184845,219.709900 335.501312,219.692261 345.817078,219.621613 
	C349.710266,219.594955 355.993500,214.838150 356.478180,211.252304 
	C356.898376,208.143326 356.673035,204.942749 356.676208,201.782608 
	C356.684387,193.606400 352.485321,189.433792 343.276703,189.340973 
z"/>
</svg>